<?xml version="1.0" encoding="utf-8"?>
<!-- Generator: Adobe Illustrator 22.1.0, SVG Export Plug-In . SVG Version: 6.00 Build 0)  -->
<svg version="1.1" id="Lager_1" xmlns="http://www.w3.org/2000/svg" xmlns:xlink="http://www.w3.org/1999/xlink" x="0px" y="0px"
	 viewBox="0 0 100 100" style="enable-background:new 0 0 100 100;" xml:space="preserve">
<g>
	<path d="M95,10H5c-2.8,0-5-2.2-5-5v0c0-2.8,2.2-5,5-5h90c2.8,0,5,2.2,5,5v0C100,7.8,97.8,10,95,10z"/>
</g>
<g>
	<path d="M95,100H5c-2.8,0-5-2.2-5-5v0c0-2.8,2.2-5,5-5h90c2.8,0,5,2.2,5,5v0C100,97.8,97.8,100,95,100z"/>
</g>
<g>
	<path d="M95,55H5c-2.8,0-5-2.2-5-5v0c0-2.8,2.2-5,5-5h90c2.8,0,5,2.2,5,5v0C100,52.8,97.8,55,95,55z"/>
</g>
</svg>
