<?xml version="1.0" encoding="utf-8"?>
<!-- Generator: Adobe Illustrator 22.1.0, SVG Export Plug-In . SVG Version: 6.00 Build 0)  -->
<svg version="1.1" id="Lager_1" xmlns="http://www.w3.org/2000/svg" xmlns:xlink="http://www.w3.org/1999/xlink" x="0px" y="0px"
	 viewBox="0 0 100 100" style="enable-background:new 0 0 100 100;" xml:space="preserve">
<g>
	<path d="M98.5,1.5c-1.9-1.9-5.1-1.9-7.1,0c-30,30-60,60-90,90c-1.9,1.9-1.9,5.1,0,7.1s5.1,1.9,7.1,0c30-30,60-60,90-90
		C100.5,6.6,100.5,3.4,98.5,1.5z"/>
</g>
<g>
	<path d="M98.5,98.5c1.9-1.9,1.9-5.1,0-7.1c-30-30-60-60-90-90c-1.9-1.9-5.1-1.9-7.1,0s-1.9,5.1,0,7.1c30,30,60,60,90,90
		C93.4,100.5,96.6,100.5,98.5,98.5z"/>
</g>
</svg>
