<?xml version="1.0" encoding="utf-8"?>
<!-- Generator: Adobe Illustrator 22.1.0, SVG Export Plug-In . SVG Version: 6.00 Build 0)  -->
<svg version="1.1" id="Lager_1" xmlns="http://www.w3.org/2000/svg" xmlns:xlink="http://www.w3.org/1999/xlink" x="0px" y="0px"
	 viewBox="0 0 100 100" style="enable-background:new 0 0 100 100;" xml:space="preserve">
<g>
	<path d="M50,12l9.4,29H90L65.3,58.9l9.4,29L50,70L25.3,88l9.4-29L10,41h30.5L50,12 M50,2c-4.3,0-8.2,2.8-9.5,6.9L33.3,31H10
		c-4.3,0-8.2,2.8-9.5,6.9c-1.3,4.1,0.1,8.6,3.6,11.2L23,62.8l-7.2,22.1c-1.3,4.1,0.1,8.6,3.6,11.2c1.8,1.3,3.8,1.9,5.9,1.9
		s4.1-0.6,5.9-1.9L50,82.4l18.8,13.7c1.8,1.3,3.8,1.9,5.9,1.9c2.1,0,4.1-0.6,5.9-1.9c3.5-2.5,5-7.1,3.6-11.2L77,62.8l18.8-13.7
		c3.5-2.5,5-7.1,3.6-11.2C98.1,33.8,94.3,31,90,31H66.7L59.5,8.9C58.2,4.8,54.3,2,50,2L50,2z"/>
</g>
</svg>
