<?xml version="1.0" encoding="utf-8"?>
<!-- Generator: Adobe Illustrator 25.4.1, SVG Export Plug-In . SVG Version: 6.00 Build 0)  -->
<svg version="1.1" id="Layer_1" xmlns="http://www.w3.org/2000/svg" xmlns:xlink="http://www.w3.org/1999/xlink" x="0px" y="0px"
	 viewBox="0 0 100 100" style="enable-background:new 0 0 100 100;" xml:space="preserve" fill="#222">
<g>
	<path d="M70.83,15.79c5.15,0,10,2.01,13.64,5.65c3.64,3.64,5.65,8.49,5.65,13.64c0,5.15-2.01,10-5.65,13.64L50.12,83.07
		L15.77,48.71c-7.52-7.52-7.52-19.76,0-27.28c3.64-3.64,8.49-5.65,13.64-5.65s10,2.01,13.64,5.65l7.07,7.07l7.07-7.07
		C60.83,17.79,65.67,15.79,70.83,15.79 M70.83,5.79c-7.5,0-14.99,2.86-20.71,8.58C44.4,8.65,36.9,5.79,29.41,5.79
		S14.41,8.65,8.69,14.36c-11.44,11.44-11.44,29.98,0,41.42l41.42,41.42l41.42-41.42c11.44-11.44,11.44-29.98,0-41.42
		C85.82,8.65,78.32,5.79,70.83,5.79L70.83,5.79z"/>
</g>
</svg>
