<?xml version="1.0" encoding="utf-8"?>
<!-- Generator: Adobe Illustrator 25.4.1, SVG Export Plug-In . SVG Version: 6.00 Build 0)  -->
<svg version="1.1" id="Layer_1" xmlns="http://www.w3.org/2000/svg" xmlns:xlink="http://www.w3.org/1999/xlink" x="0px" y="0px"
	 viewBox="0 0 100 100" style="enable-background:new 0 0 100 100;" xml:space="preserve">
<style type="text/css">
	.st0{fill:#FFFFFF;}
</style>
<g>
	<path class="st0" d="M50,0C36.42,0,34.72,0.06,29.39,0.3c-5.32,0.24-8.96,1.09-12.14,2.32c-3.29,1.28-6.08,2.99-8.86,5.77
		c-2.78,2.78-4.49,5.57-5.77,8.86c-1.24,3.18-2.08,6.82-2.32,12.14C0.06,34.72,0,36.42,0,50c0,13.58,0.06,15.28,0.3,20.61
		c0.24,5.32,1.09,8.96,2.32,12.14c1.28,3.29,2.99,6.08,5.77,8.86c2.78,2.78,5.57,4.49,8.86,5.77c3.18,1.24,6.82,2.08,12.14,2.32
		c5.33,0.24,7.04,0.3,20.62,0.3c13.58,0,15.28-0.06,20.61-0.3c5.32-0.24,8.96-1.09,12.14-2.32c3.29-1.28,6.08-2.99,8.86-5.77
		c2.78-2.78,4.49-5.57,5.77-8.86c1.24-3.18,2.08-6.82,2.32-12.14c0.24-5.33,0.3-7.04,0.3-20.61c0-13.58-0.06-15.28-0.3-20.62
		c-0.24-5.32-1.09-8.96-2.32-12.14c-1.28-3.29-2.99-6.08-5.77-8.86c-2.78-2.78-5.57-4.49-8.86-5.77c-3.18-1.24-6.82-2.08-12.14-2.32
		C65.28,0.06,63.58,0,50,0L50,0L50,0z M50,9.01c13.35,0,14.93,0.05,20.2,0.29c4.87,0.22,7.52,1.04,9.28,1.72
		c2.33,0.91,4,1.99,5.75,3.74c1.75,1.75,2.83,3.42,3.74,5.75c0.68,1.76,1.5,4.41,1.72,9.28c0.24,5.27,0.29,6.85,0.29,20.2
		c0,13.35-0.05,14.93-0.29,20.2c-0.22,4.87-1.04,7.52-1.72,9.28c-0.91,2.33-1.99,4-3.74,5.75c-1.75,1.75-3.42,2.83-5.75,3.74
		c-1.76,0.68-4.41,1.5-9.28,1.72c-5.27,0.24-6.85,0.29-20.2,0.29c-13.35,0-14.93-0.05-20.2-0.29c-4.87-0.22-7.52-1.04-9.28-1.72
		c-2.33-0.91-4-1.99-5.75-3.74c-1.75-1.75-2.83-3.42-3.74-5.75c-0.68-1.76-1.5-4.41-1.72-9.28C9.06,64.93,9.01,63.35,9.01,50
		c0-13.35,0.05-14.93,0.29-20.2c0.22-4.87,1.04-7.52,1.72-9.28c0.91-2.33,1.99-4,3.74-5.75c1.75-1.75,3.42-2.83,5.75-3.74
		c1.76-0.68,4.41-1.5,9.28-1.72C35.07,9.06,36.65,9.01,50,9.01"/>
	<path class="st0" d="M50,66.67c-9.2,0-16.67-7.46-16.67-16.67c0-9.2,7.46-16.67,16.67-16.67c9.2,0,16.67,7.46,16.67,16.67
		C66.67,59.2,59.2,66.67,50,66.67L50,66.67z M50,24.32c-14.18,0-25.68,11.5-25.68,25.68c0,14.18,11.5,25.68,25.68,25.68
		c14.18,0,25.68-11.5,25.68-25.68C75.68,35.82,64.18,24.32,50,24.32L50,24.32z"/>
	<path class="st0" d="M82.69,23.31c0,3.31-2.69,6-6,6c-3.31,0-6-2.69-6-6c0-3.31,2.69-6,6-6C80,17.31,82.69,20,82.69,23.31
		L82.69,23.31z"/>
</g>
</svg>
