<?xml version="1.0" encoding="utf-8"?>
<!-- Generator: Adobe Illustrator 22.1.0, SVG Export Plug-In . SVG Version: 6.00 Build 0)  -->
<svg version="1.1" id="Lager_1" xmlns="http://www.w3.org/2000/svg" xmlns:xlink="http://www.w3.org/1999/xlink" x="0px" y="0px"
	 viewBox="0 0 256 256" style="enable-background:new 0 0 256 256;" xml:space="preserve">
<style type="text/css">
	.st0{fill:#FFFFFF;}
</style>
<g>
	<g>
		<path class="st0" d="M196.6,76.1c-1.6-4.1-3.5-7-6.6-10.1s-6-5-10.1-6.6c-3.1-1.2-7.8-2.6-16.3-3c-9.3-0.4-12.1-0.5-35.6-0.5
			s-26.3,0.1-35.6,0.5c-8.6,0.4-13.2,1.8-16.3,3C72,61,69.1,62.9,66,66s-5,6-6.6,10.1c-1.2,3.1-2.6,7.8-3,16.3
			c-0.4,9.3-0.5,12.1-0.5,35.6s0.1,26.3,0.5,35.6c0.4,8.6,1.8,13.2,3,16.3c1.6,4.1,3.5,7,6.6,10.1s6,5,10.1,6.6
			c3.1,1.2,7.8,2.6,16.3,3c9.3,0.4,12.1,0.5,35.6,0.5s26.3-0.1,35.6-0.5c8.6-0.4,13.2-1.8,16.3-3c4.1-1.6,7-3.5,10.1-6.6
			s5-6,6.6-10.1c1.2-3.1,2.6-7.8,3-16.3c0.4-9.3,0.5-12.1,0.5-35.6s-0.1-26.3-0.5-35.6C199.2,83.9,197.8,79.2,196.6,76.1z
			 M128,173.2c-25,0-45.2-20.2-45.2-45.2S103,82.8,128,82.8s45.2,20.2,45.2,45.2S153,173.2,128,173.2z M175,91.6
			c-5.8,0-10.6-4.7-10.6-10.6c0-5.8,4.7-10.6,10.6-10.6c5.8,0,10.6,4.7,10.6,10.6C185.5,86.9,180.8,91.6,175,91.6z"/>
	</g>
	<g>
		<circle class="st0" cx="128" cy="128" r="29.3"/>
	</g>
	<g>
		<path class="st0" d="M128,0C57.3,0,0,57.3,0,128s57.3,128,128,128s128-57.3,128-128S198.7,0,128,0z M215.5,164.3
			c-0.4,9.4-1.9,15.8-4.1,21.4c-2.2,5.8-5.3,10.7-10.2,15.6c-4.9,4.9-9.8,7.9-15.6,10.2c-5.6,2.2-12,3.7-21.4,4.1
			c-9.4,0.4-12.4,0.5-36.3,0.5s-26.9-0.1-36.3-0.5s-15.8-1.9-21.4-4.1c-5.8-2.2-10.7-5.3-15.6-10.2s-7.9-9.8-10.2-15.6
			c-2.2-5.6-3.7-12-4.1-21.4c-0.4-9.4-0.5-12.4-0.5-36.3s0.1-26.9,0.5-36.3s1.9-15.8,4.1-21.4c2.2-5.8,5.3-10.7,10.2-15.6
			s9.8-7.9,15.6-10.2c5.6-2.2,12-3.7,21.4-4.1c9.4-0.4,12.4-0.5,36.3-0.5s26.9,0.1,36.3,0.5c9.4,0.4,15.8,1.9,21.4,4.1
			c5.8,2.2,10.7,5.3,15.6,10.2c4.9,4.9,7.9,9.8,10.2,15.6c2.2,5.6,3.7,12,4.1,21.4c0.4,9.4,0.5,12.4,0.5,36.3
			S215.9,154.9,215.5,164.3z"/>
	</g>
</g>
</svg>
