<?xml version="1.0" encoding="utf-8"?>
<!-- Generator: Adobe Illustrator 25.4.1, SVG Export Plug-In . SVG Version: 6.00 Build 0)  -->
<svg version="1.1" id="Layer_1" xmlns="http://www.w3.org/2000/svg" xmlns:xlink="http://www.w3.org/1999/xlink" x="0px" y="0px"
	 viewBox="0 0 100 100" style="enable-background:new 0 0 100 100;" xml:space="preserve">
<g>
	<path d="M60.11,10.07L60.11,10.07v50l-50,0l0-50H60.11 M60.11,0.07h-50c-5.52,0-10,4.48-10,10v50c0,5.52,4.48,10,10,10h50
		c5.52,0,10-4.48,10-10v-50C70.12,4.55,65.64,0.07,60.11,0.07L60.11,0.07z"/>
</g>
<g>
	<path d="M90.12,40.07v50h-50v-50H90.12 M90.12,30.07h-50c-5.52,0-10,4.48-10,10v50c0,5.52,4.48,10,10,10h50c5.52,0,10-4.48,10-10
		v-50C100.12,34.54,95.64,30.07,90.12,30.07L90.12,30.07z"/>
</g>
</svg>
