<?xml version="1.0" encoding="utf-8"?>
<!-- Generator: Adobe Illustrator 22.1.0, SVG Export Plug-In . SVG Version: 6.00 Build 0)  -->
<svg version="1.1" id="Lager_1" xmlns="http://www.w3.org/2000/svg" xmlns:xlink="http://www.w3.org/1999/xlink" x="0px" y="0px"
	 viewBox="0 0 100 100" style="enable-background:new 0 0 100 100;" xml:space="preserve">
<style type="text/css">
	.st0{fill:#FFFFFF;}
</style>
<g>
	<path class="st0" d="M95,19H5c-2.8,0-5,2.2-5,5v52c0,2.8,2.2,5,5,5h90c2.8,0,5-2.2,5-5V24C100,21.2,97.8,19,95,19z M10,29h80v42H10
		V29z"/>
</g>
<path class="st0" d="M50,65c-1.1,0-2.2-0.4-3.1-1.1l-45-36c-2.2-1.7-2.5-4.9-0.8-7c1.7-2.2,4.9-2.5,7-0.8L50,53.6
	c15.8-12.3,29.2-23,41.8-33.5c2.1-1.8,5.3-1.5,7,0.7c1.8,2.1,1.5,5.3-0.7,7C84.7,39.1,70.4,50.5,53.1,64C52.2,64.7,51.1,65,50,65z"
	/>
<g>
	<path class="st0" d="M29.5,50L1.9,72.1c-2.2,1.7-2.5,4.9-0.8,7c1.7,2.2,4.9,2.5,7,0.8l29.4-23.5L29.5,50z"/>
	<path class="st0" d="M70.9,50c-2.6,2.1-5.3,4.2-8.1,6.4c10.5,8.3,19.9,15.9,29,23.5c2.1,1.8,5.3,1.5,7-0.7c1.8-2.1,1.5-5.3-0.7-7
		C89.6,65,80.7,57.8,70.9,50z"/>
</g>
<path class="st0" d="M27,40"/>
</svg>
