<?xml version="1.0" encoding="utf-8"?>
<!-- Generator: Adobe Illustrator 22.1.0, SVG Export Plug-In . SVG Version: 6.00 Build 0)  -->
<svg version="1.1" id="Lager_1" xmlns="http://www.w3.org/2000/svg" xmlns:xlink="http://www.w3.org/1999/xlink" x="0px" y="0px"
	 viewBox="0 0 100 100" style="enable-background:new 0 0 100 100;" xml:space="preserve">
<path d="M98.5,91.5C86.7,79.6,74.9,67.8,63,56c4.4-5.8,7-13.1,7-21C70,15.7,54.3,0,35,0S0,15.7,0,35s15.7,35,35,35
	c7.9,0,15.1-2.6,21-7c11.8,11.8,23.7,23.7,35.5,35.5c1.9,1.9,5.1,1.9,7.1,0S100.5,93.4,98.5,91.5z M35,60c-13.8,0-25-11.2-25-25
	s11.2-25,25-25s25,11.2,25,25S48.8,60,35,60z"/>
</svg>
