<?xml version="1.0" encoding="utf-8"?>
<!-- Generator: Adobe Illustrator 22.1.0, SVG Export Plug-In . SVG Version: 6.00 Build 0)  -->
<svg version="1.1" id="Lager_1" xmlns="http://www.w3.org/2000/svg" xmlns:xlink="http://www.w3.org/1999/xlink" x="0px" y="0px"
	 viewBox="0 0 100 100" style="enable-background:new 0 0 100 100;" xml:space="preserve">
<g>
	<path d="M89.4,95l-8.9-71.2c-0.3-2.2-2.2-3.9-4.4-3.9H70h-5v-5c0-8.5-7.1-15.4-15.7-15C41.2,0.4,35,7.4,35,15.5V20h-5h-6.1
		c-2.2,0-4.1,1.7-4.4,3.9L10.6,95c-0.3,2.6,1.7,5,4.4,5h5h60h5C87.7,100,89.7,97.7,89.4,95z M45,15.3c0-2.6,1.9-5,4.6-5.2
		c3-0.3,5.4,2.1,5.4,5v5H45V15.3z M21.3,90l7.5-60H35v5c0,2.8,2.2,5,5,5s5-2.2,5-5v-5h10v5c0,2.8,2.2,5,5,5s5-2.2,5-5v-5h6.3l7.5,60
		H21.3z"/>
</g>
</svg>
