<?xml version="1.0" encoding="utf-8"?>
<!-- Generator: Adobe Illustrator 25.4.1, SVG Export Plug-In . SVG Version: 6.00 Build 0)  -->
<svg version="1.1" id="Layer_1" xmlns="http://www.w3.org/2000/svg" xmlns:xlink="http://www.w3.org/1999/xlink" x="0px" y="0px"
	 viewBox="0 0 100 100" style="enable-background:new 0 0 100 100;" xml:space="preserve" fill="#222">
<style type="text/css">
	.st0{display:none;}
</style>
<path class="st0" d="M87.62,20.07h-75c-1.38,0-2.5,1.12-2.5,2.5v75c0,1.38,1.12,2.5,2.5,2.5h75c1.38,0,2.5-1.12,2.5-2.5v-75
	C90.12,21.19,89,20.07,87.62,20.07z M15.12,25.07h70v70h-70V25.07z"/>
<path class="st0" d="M70.12,20.07v20c0,1.38-1.12,2.5-2.5,2.5s-2.5-1.12-2.5-2.5v-20c0-8.28-6.72-15-15-15s-15,6.72-15,15v20
	c0,1.38-1.12,2.5-2.5,2.5s-2.5-1.12-2.5-2.5v-20c0-11.05,8.95-20,20-20S70.12,9.02,70.12,20.07z"/>
<g>
	<path d="M85,20H15c-2.76,0-5,2.24-5,5v70c0,2.76,2.24,5,5,5h70c2.76,0,5-2.24,5-5V25C90,22.24,87.76,20,85,20z M80,90H20V30h60V90z
		"/>
	<path d="M70,20v20c0,2.76-2.24,5-5,5s-5-2.24-5-5V20c0-5.52-4.48-10-10-10s-10,4.48-10,10v20c0,2.76-2.24,5-5,5s-5-2.24-5-5V20
		C30,8.95,38.95,0,50,0S70,8.95,70,20z"/>
</g>
</svg>
