<?xml version="1.0" encoding="utf-8"?>
<!-- Generator: Adobe Illustrator 25.4.1, SVG Export Plug-In . SVG Version: 6.00 Build 0)  -->
<svg version="1.1" id="Layer_1" xmlns="http://www.w3.org/2000/svg" xmlns:xlink="http://www.w3.org/1999/xlink" x="0px" y="0px"
	 viewBox="0 0 100 100" style="enable-background:new 0 0 100 100;" xml:space="preserve">
<style type="text/css">
	.st0{fill:#FFFFFF;}
</style>
<g>
	<g>
		<path class="st0" d="M89.76,29.6c0.06,0.88,0.06,1.76,0.06,2.65c0,27.11-20.64,58.38-58.38,58.38v-0.02
			C20.3,90.63,9.38,87.43,0,81.41c1.62,0.19,3.25,0.29,4.88,0.3c9.24,0.01,18.21-3.09,25.48-8.8c-8.78-0.17-16.48-5.89-19.17-14.25
			c3.07,0.59,6.24,0.47,9.26-0.35C10.89,56.37,4,47.96,4,38.2c0-0.09,0-0.18,0-0.26c2.85,1.59,6.05,2.47,9.31,2.57
			C4.3,34.48,1.51,22.49,6.96,13.12c10.42,12.82,25.79,20.61,42.28,21.44c-1.65-7.12,0.61-14.59,5.94-19.6
			c8.26-7.77,21.26-7.37,29.03,0.89c4.59-0.91,9-2.59,13.03-4.98c-1.53,4.75-4.74,8.78-9.02,11.35c4.07-0.48,8.04-1.57,11.78-3.23
			C97.25,23.1,93.78,26.7,89.76,29.6L89.76,29.6z"/>
	</g>
</g>
</svg>
