<?xml version="1.0" encoding="utf-8"?>
<!-- Generator: Adobe Illustrator 22.1.0, SVG Export Plug-In . SVG Version: 6.00 Build 0)  -->
<svg version="1.1" id="Lager_1" xmlns="http://www.w3.org/2000/svg" xmlns:xlink="http://www.w3.org/1999/xlink" x="0px" y="0px"
	 viewBox="0 0 256 256" style="enable-background:new 0 0 256 256;" xml:space="preserve">
<style type="text/css">
	.st0{fill:#FFFFFF;}
</style>
<path class="st0" d="M128,0C57.3,0,0,57.3,0,128s57.3,128,128,128s128-57.3,128-128S198.7,0,128,0z M199,95.1
	c0.1,1.6,0.1,3.1,0.1,4.7C199.1,148.2,162.3,204,95,204l0,0c-19.9,0-39.4-5.7-56.1-16.4c2.9,0.3,5.8,0.5,8.7,0.5
	c16.5,0,32.5-5.5,45.5-15.7c-15.7-0.3-29.4-10.5-34.2-25.4c5.5,1.1,11.1,0.8,16.5-0.6c-17.1-3.5-29.4-18.5-29.4-36
	c0-0.2,0-0.3,0-0.5c5.1,2.8,10.8,4.4,16.6,4.6c-16.1-10.8-21-32.2-11.3-48.9c18.6,22.9,46,36.8,75.5,38.3c-3-12.7,1.1-26,10.6-35
	c14.7-13.9,37.9-13.2,51.8,1.6c8.2-1.6,16.1-4.6,23.3-8.9c-2.7,8.5-8.5,15.7-16.1,20.2c7.3-0.9,14.3-2.8,21-5.8
	C212.4,83.5,206.2,89.9,199,95.1z"/>
</svg>
